<svg id="Layer_1" data-name="Layer 1" xmlns="http://www.w3.org/2000/svg" viewBox="0 0 1366 768"><defs><style>.cls-1,.cls-11{fill:none;}.cls-1,.cls-10{stroke:#7870a7;}.cls-1,.cls-10,.cls-11,.cls-14,.cls-2,.cls-3,.cls-4,.cls-5,.cls-6,.cls-7,.cls-8,.cls-9{stroke-miterlimit:10;}.cls-1,.cls-10,.cls-11,.cls-14,.cls-2,.cls-3,.cls-4,.cls-9{stroke-width:2px;}.cls-10,.cls-2,.cls-3,.cls-4{fill:#fff;}.cls-2{stroke:#f4cc79;}.cls-3{stroke:#cf6a86;}.cls-4{stroke:#68c9d6;}.cls-5{fill:#cf6a86;}.cls-5,.cls-6,.cls-7,.cls-8{stroke:#fff;}.cls-6{fill:#68c9d6;}.cls-7{fill:#f4cc79;}.cls-8{fill:#7870a7;}.cls-9{fill:#dfecc9;}.cls-11,.cls-9{stroke:#46a547;}.cls-12{fill:#46a547;}.cls-13{font-size:16px;fill:#404041;}.cls-13,.cls-15{font-family:Helvetica-Bold, Helvetica;font-weight:700;}.cls-14{fill:#e6e7e8;stroke:#6d6e70;}.cls-15{font-size:14px;fill:#58595b;}.cls-16{letter-spacing:-0.04em;}</style></defs><line class="cls-1" x1="281.64" y1="601.34" x2="512.75" y2="404.75"/><line class="cls-2" x1="285.24" y1="579.46" x2="512.75" y2="382.87"/><polyline class="cls-1" points="120.74 517.58 281.64 308.75 512.75 314.54"/><line class="cls-2" x1="512.75" y1="270.78" x2="667.19" y2="292.66"/><line class="cls-1" x1="512.75" y1="314.54" x2="667.19" y2="314.54"/><line class="cls-3" x1="512.75" y1="339.1" x2="667.19" y2="339.1"/><line class="cls-1" x1="512.75" y1="404.75" x2="667.19" y2="360.98"/><line class="cls-3" x1="281.64" y1="101.8" x2="512.75" y2="248.89"/><line class="cls-2" x1="281.64" y1="145.57" x2="512.75" y2="270.78"/><line class="cls-4" x1="281.64" y1="264.98" x2="512.75" y2="292.66"/><line class="cls-3" x1="281.64" y1="394.4" x2="512.75" y2="339.1"/><line class="cls-4" x1="281.64" y1="416.28" x2="512.75" y2="360.98"/><line class="cls-2" x1="120.74" y1="374.4" x2="281.64" y2="145.57"/><line class="cls-4" x1="120.74" y1="253.1" x2="281.64" y2="123.69"/><line class="cls-4" x1="120.74" y1="274.98" x2="281.64" y2="264.98"/><line class="cls-4" x1="120.74" y1="296.87" x2="281.64" y2="416.28"/><line class="cls-4" x1="120.74" y1="318.75" x2="281.64" y2="557.58"/><line class="cls-3" x1="120.74" y1="131.8" x2="281.64" y2="101.8"/><line class="cls-3" x1="120.74" y1="153.69" x2="281.64" y2="243.1"/><line class="cls-3" x1="120.74" y1="175.57" x2="281.64" y2="394.4"/><line class="cls-3" x1="120.74" y1="197.45" x2="281.64" y2="539.46"/><circle class="cls-5" cx="281.64" cy="101.8" r="8.62"/><circle class="cls-6" cx="281.64" cy="123.69" r="8.62"/><circle class="cls-7" cx="281.64" cy="145.57" r="8.62"/><circle class="cls-8" cx="281.64" cy="167.45" r="8.62"/><circle class="cls-5" cx="512.75" cy="248.89" r="8.62"/><circle class="cls-7" cx="512.75" cy="270.78" r="8.62"/><rect class="cls-9" x="646.89" y="274.98" width="42.11" height="99.41" rx="6"/><circle class="cls-6" cx="512.75" cy="292.66" r="8.62"/><circle class="cls-8" cx="512.75" cy="314.54" r="8.62"/><circle class="cls-5" cx="512.75" cy="339.1" r="8.62"/><circle class="cls-6" cx="512.75" cy="360.98" r="8.62"/><circle class="cls-7" cx="667.19" cy="292.66" r="8.62"/><circle class="cls-8" cx="667.19" cy="314.54" r="8.62"/><circle class="cls-5" cx="667.19" cy="339.1" r="8.62"/><circle class="cls-8" cx="667.19" cy="360.98" r="8.62"/><circle class="cls-7" cx="512.75" cy="382.87" r="8.62"/><circle class="cls-8" cx="512.75" cy="404.75" r="8.62"/><circle class="cls-5" cx="281.64" cy="243.1" r="8.62"/><circle class="cls-6" cx="281.64" cy="264.98" r="8.62"/><circle class="cls-7" cx="281.64" cy="286.87" r="8.62"/><circle class="cls-8" cx="281.64" cy="308.75" r="8.62"/><circle class="cls-5" cx="281.64" cy="394.4" r="8.62"/><circle class="cls-6" cx="281.64" cy="416.28" r="8.62"/><circle class="cls-7" cx="281.64" cy="438.16" r="8.62"/><circle class="cls-8" cx="281.64" cy="460.04" r="8.62"/><circle class="cls-5" cx="281.64" cy="535.69" r="8.62"/><circle class="cls-6" cx="281.64" cy="557.58" r="8.62"/><circle class="cls-7" cx="281.64" cy="579.46" r="8.62"/><circle class="cls-8" cx="281.64" cy="601.34" r="8.62"/><line class="cls-2" x1="120.74" y1="396.28" x2="281.64" y2="286.87"/><line class="cls-2" x1="120.74" y1="418.16" x2="281.64" y2="438.16"/><line class="cls-2" x1="120.74" y1="440.04" x2="281.64" y2="579.46"/><line class="cls-10" x1="120.74" y1="495.69" x2="281.64" y2="167.45"/><line class="cls-10" x1="120.74" y1="539.46" x2="281.64" y2="460.04"/><line class="cls-10" x1="120.74" y1="561.34" x2="285.24" y2="601.34"/><line class="cls-11" x1="688.99" y1="303.48" x2="768.03" y2="303.48"/><polygon class="cls-12" points="761.4 311.66 760.04 310.2 767.26 303.49 760.04 296.77 761.4 295.31 770.2 303.49 761.4 311.66"/><text class="cls-13" transform="translate(84.33 664.64)">Input Layer</text><text class="cls-13" transform="translate(238.95 664.64)">Hidden Layer 1</text><text class="cls-13" transform="translate(462.48 664.64)">Hidden Layer 2</text><text class="cls-13" transform="translate(665.81 664.64)">Output Layer</text><rect class="cls-14" x="783.58" y="214.77" width="85.11" height="26.71" rx="6"/><rect class="cls-14" x="783.58" y="251.12" width="85.11" height="26.71" rx="6"/><rect class="cls-14" x="783.58" y="287.47" width="85.11" height="26.71" rx="6"/><rect class="cls-14" x="783.58" y="323.82" width="85.11" height="26.71" rx="6"/><rect class="cls-14" x="783.58" y="360.17" width="85.11" height="26.71" rx="6"/><rect class="cls-14" x="783.58" y="396.52" width="85.11" height="26.71" rx="6"/><text class="cls-15" transform="translate(791.2 234.88)">Horse</text><text class="cls-15" transform="translate(791.2 271.16)"><tspan class="cls-16">W</tspan><tspan x="12.7" y="0">alrus</tspan></text><text class="cls-15" transform="translate(791.2 307.44)">Elephant</text><text class="cls-15" transform="translate(791.2 343.72)">Cat</text><text class="cls-15" transform="translate(791.2 380)">Kangaroo</text><text class="cls-15" transform="translate(791.2 416.28)">Dog</text><circle class="cls-5" cx="121.16" cy="132.27" r="8.62"/><circle class="cls-5" cx="121.16" cy="154.16" r="8.62"/><circle class="cls-5" cx="121.16" cy="176.04" r="8.62"/><circle class="cls-5" cx="121.16" cy="197.92" r="8.62"/><circle class="cls-6" cx="121.16" cy="253.57" r="8.62"/><circle class="cls-6" cx="121.16" cy="275.45" r="8.62"/><circle class="cls-6" cx="121.16" cy="297.33" r="8.62"/><circle class="cls-6" cx="121.16" cy="319.22" r="8.62"/><circle class="cls-7" cx="121.16" cy="374.87" r="8.62"/><circle class="cls-7" cx="121.16" cy="396.75" r="8.62"/><circle class="cls-7" cx="121.16" cy="418.63" r="8.62"/><circle class="cls-7" cx="121.16" cy="440.51" r="8.62"/><circle class="cls-8" cx="121.16" cy="496.16" r="8.62"/><circle class="cls-8" cx="121.16" cy="518.05" r="8.62"/><circle class="cls-8" cx="121.16" cy="539.93" r="8.62"/><circle class="cls-8" cx="121.16" cy="561.81" r="8.62"/></svg>