<svg id="Layer_1" data-name="Layer 1" xmlns="http://www.w3.org/2000/svg" viewBox="0 0 1366 768"><defs><style>.cls-1,.cls-13,.cls-5{fill:none;}.cls-1,.cls-12{stroke:#7870a7;}.cls-1,.cls-10,.cls-11,.cls-12,.cls-13,.cls-16,.cls-2,.cls-3,.cls-4,.cls-5,.cls-6,.cls-7,.cls-8,.cls-9{stroke-miterlimit:10;}.cls-1,.cls-10,.cls-12,.cls-13,.cls-16,.cls-2,.cls-3,.cls-4,.cls-5{stroke-width:2px;}.cls-12,.cls-2,.cls-3,.cls-4{fill:#fff;}.cls-2{stroke:#f4cc79;}.cls-3{stroke:#cf6a86;}.cls-4{stroke:#68c9d6;}.cls-5{stroke:#fc8b27;}.cls-6{fill:#cf6a86;}.cls-11,.cls-6,.cls-7,.cls-8,.cls-9{stroke:#fff;}.cls-7{fill:#68c9d6;}.cls-8{fill:#f4cc79;}.cls-9{fill:#7870a7;}.cls-10{fill:#dfecc9;}.cls-10,.cls-13{stroke:#46a547;}.cls-11{fill:#e88542;}.cls-14{fill:#46a547;}.cls-15{font-size:16px;fill:#404041;}.cls-15,.cls-17{font-family:Helvetica-Bold, Helvetica;font-weight:700;}.cls-16{fill:#e6e7e8;stroke:#6d6e70;}.cls-17{font-size:14px;fill:#58595b;}.cls-18{letter-spacing:-0.04em;}</style></defs><line class="cls-1" x1="281.64" y1="643.34" x2="512.75" y2="376.75"/><line class="cls-2" x1="285.24" y1="621.46" x2="512.75" y2="354.87"/><polyline class="cls-1" points="120.74 471.58 281.64 280.75 512.75 286.54"/><line class="cls-2" x1="512.75" y1="242.78" x2="667.19" y2="264.66"/><line class="cls-1" x1="512.75" y1="286.54" x2="667.19" y2="286.54"/><line class="cls-3" x1="512.75" y1="311.1" x2="667.19" y2="311.1"/><line class="cls-1" x1="512.75" y1="376.75" x2="667.19" y2="332.98"/><line class="cls-3" x1="281.64" y1="53.8" x2="512.75" y2="220.89"/><line class="cls-2" x1="281.64" y1="97.57" x2="512.75" y2="242.78"/><line class="cls-4" x1="281.64" y1="236.98" x2="512.75" y2="264.66"/><line class="cls-3" x1="281.64" y1="386.4" x2="512.75" y2="311.1"/><line class="cls-5" x1="281.64" y1="475.28" x2="513" y2="333"/><line class="cls-2" x1="120.74" y1="328.4" x2="281.64" y2="97.57"/><line class="cls-4" x1="120.74" y1="207.1" x2="281.64" y2="75.69"/><line class="cls-4" x1="120.74" y1="228.98" x2="281.64" y2="236.98"/><line class="cls-4" x1="120.74" y1="250.87" x2="281.64" y2="408.28"/><line class="cls-4" x1="120.74" y1="272.75" x2="281.64" y2="599.58"/><line class="cls-3" x1="120.74" y1="85.8" x2="281.64" y2="53.8"/><line class="cls-3" x1="120.74" y1="107.69" x2="281.64" y2="215.1"/><line class="cls-3" x1="120.74" y1="129.57" x2="281.64" y2="386.4"/><line class="cls-3" x1="120.74" y1="151.45" x2="281.64" y2="581.46"/><circle class="cls-6" cx="281.64" cy="53.8" r="8.62"/><circle class="cls-7" cx="281.64" cy="75.69" r="8.62"/><circle class="cls-8" cx="281.64" cy="97.57" r="8.62"/><circle class="cls-9" cx="281.64" cy="119.45" r="8.62"/><circle class="cls-6" cx="512.75" cy="220.89" r="8.62"/><circle class="cls-8" cx="512.75" cy="242.78" r="8.62"/><rect class="cls-10" x="646.89" y="246.98" width="42.11" height="99.41" rx="6"/><circle class="cls-7" cx="512.75" cy="264.66" r="8.62"/><circle class="cls-9" cx="512.75" cy="286.54" r="8.62"/><circle class="cls-6" cx="512.75" cy="311.1" r="8.62"/><circle class="cls-11" cx="512.75" cy="332.98" r="8.62"/><circle class="cls-8" cx="667.19" cy="264.66" r="8.62"/><circle class="cls-9" cx="667.19" cy="286.54" r="8.62"/><circle class="cls-6" cx="667.19" cy="311.1" r="8.62"/><circle class="cls-9" cx="667.19" cy="332.98" r="8.62"/><circle class="cls-8" cx="512.75" cy="354.87" r="8.62"/><circle class="cls-9" cx="512.75" cy="376.75" r="8.62"/><circle class="cls-6" cx="281.64" cy="215.1" r="8.62"/><circle class="cls-7" cx="281.64" cy="236.98" r="8.62"/><circle class="cls-8" cx="281.64" cy="258.87" r="8.62"/><circle class="cls-9" cx="281.64" cy="280.75" r="8.62"/><circle class="cls-6" cx="281.64" cy="386.4" r="8.62"/><circle class="cls-7" cx="281.64" cy="408.28" r="8.62"/><circle class="cls-8" cx="281.64" cy="430.16" r="8.62"/><circle class="cls-9" cx="281.64" cy="452.04" r="8.62"/><circle class="cls-6" cx="281.64" cy="577.69" r="8.62"/><circle class="cls-7" cx="281.64" cy="599.58" r="8.62"/><circle class="cls-8" cx="281.64" cy="621.46" r="8.62"/><circle class="cls-9" cx="281.64" cy="643.34" r="8.62"/><line class="cls-2" x1="120.74" y1="350.28" x2="281.64" y2="258.87"/><line class="cls-2" x1="120.74" y1="372.16" x2="281.64" y2="430.16"/><line class="cls-2" x1="120.74" y1="394.04" x2="281.64" y2="621.46"/><line class="cls-12" x1="120.74" y1="449.69" x2="281.64" y2="119.45"/><line class="cls-12" x1="120.74" y1="493.46" x2="281.64" y2="452.04"/><line class="cls-12" x1="120.74" y1="515.34" x2="285.24" y2="643.34"/><line class="cls-13" x1="688.99" y1="275.48" x2="768.03" y2="275.48"/><polygon class="cls-14" points="761.4 283.66 760.04 282.2 767.26 275.49 760.04 268.77 761.4 267.31 770.2 275.49 761.4 283.66"/><text class="cls-15" transform="translate(84.33 718.64)">Input Layer</text><text class="cls-15" transform="translate(238.95 718.64)">Hidden Layer 1</text><text class="cls-15" transform="translate(462.48 718.64)">Hidden Layer 2</text><text class="cls-15" transform="translate(665.81 718.64)">Output Layer</text><rect class="cls-16" x="783.58" y="186.77" width="85.11" height="26.71" rx="6"/><rect class="cls-16" x="783.58" y="223.12" width="85.11" height="26.71" rx="6"/><rect class="cls-16" x="783.58" y="259.47" width="85.11" height="26.71" rx="6"/><rect class="cls-16" x="783.58" y="295.82" width="85.11" height="26.71" rx="6"/><rect class="cls-16" x="783.58" y="332.17" width="85.11" height="26.71" rx="6"/><rect class="cls-16" x="783.58" y="368.52" width="85.11" height="26.71" rx="6"/><text class="cls-17" transform="translate(791.2 206.88)">Horse</text><text class="cls-17" transform="translate(791.2 243.16)"><tspan class="cls-18">W</tspan><tspan x="12.7" y="0">alrus</tspan></text><text class="cls-17" transform="translate(791.2 279.44)">Elephant</text><text class="cls-17" transform="translate(791.2 315.72)">Cat</text><text class="cls-17" transform="translate(791.2 352)">Kangaroo</text><text class="cls-17" transform="translate(791.2 388.28)">Dog</text><circle class="cls-6" cx="121.16" cy="86.27" r="8.62"/><circle class="cls-6" cx="121.16" cy="108.16" r="8.62"/><circle class="cls-6" cx="121.16" cy="130.04" r="8.62"/><circle class="cls-6" cx="121.16" cy="151.92" r="8.62"/><circle class="cls-7" cx="121.16" cy="207.57" r="8.62"/><circle class="cls-7" cx="121.16" cy="229.45" r="8.62"/><circle class="cls-7" cx="121.16" cy="251.33" r="8.62"/><circle class="cls-7" cx="121.16" cy="273.22" r="8.62"/><circle class="cls-8" cx="121.16" cy="328.87" r="8.62"/><circle class="cls-8" cx="121.16" cy="350.75" r="8.62"/><circle class="cls-8" cx="121.16" cy="372.63" r="8.62"/><circle class="cls-8" cx="121.16" cy="394.51" r="8.62"/><circle class="cls-9" cx="121.16" cy="450.16" r="8.62"/><circle class="cls-9" cx="121.16" cy="472.05" r="8.62"/><circle class="cls-9" cx="121.16" cy="493.93" r="8.62"/><circle class="cls-9" cx="121.16" cy="515.81" r="8.62"/><circle class="cls-11" cx="121.16" cy="582.16" r="8.62"/><circle class="cls-11" cx="281.16" cy="144.16" r="8.62"/><circle class="cls-11" cx="281.16" cy="305.16" r="8.62"/><circle class="cls-11" cx="281.16" cy="475.16" r="8.62"/><circle class="cls-11" cx="281.16" cy="668.16" r="8.62"/><circle class="cls-11" cx="121.16" cy="604.05" r="8.62"/><circle class="cls-11" cx="121.16" cy="625.93" r="8.62"/><circle class="cls-11" cx="121.16" cy="647.81" r="8.62"/><line class="cls-5" x1="121.16" y1="582.16" x2="281.16" y2="144.16"/><line class="cls-5" x1="121.16" y1="604.05" x2="274.93" y2="311.1"/><line class="cls-5" x1="121.16" y1="625.93" x2="281.16" y2="475.16"/><line class="cls-5" x1="121.16" y1="647.81" x2="281.16" y2="668.16"/></svg>