<svg id="Layer_1" data-name="Layer 1" xmlns="http://www.w3.org/2000/svg" viewBox="0 0 1366 862"><defs><style>.cls-1,.cls-13,.cls-20,.cls-5{fill:none;}.cls-1,.cls-12{stroke:#7870a7;}.cls-1,.cls-10,.cls-11,.cls-12,.cls-13,.cls-16,.cls-19,.cls-2,.cls-20,.cls-3,.cls-4,.cls-5,.cls-6,.cls-7,.cls-8,.cls-9{stroke-miterlimit:10;}.cls-1,.cls-10,.cls-12,.cls-13,.cls-16,.cls-2,.cls-20,.cls-3,.cls-4,.cls-5{stroke-width:2px;}.cls-12,.cls-2,.cls-3,.cls-4{fill:#fff;}.cls-2{stroke:#f4cc79;}.cls-3{stroke:#cf6a86;}.cls-4{stroke:#68c9d6;}.cls-5{stroke:#fc8b27;}.cls-6{fill:#cf6a86;}.cls-11,.cls-19,.cls-6,.cls-7,.cls-8,.cls-9{stroke:#fff;}.cls-7{fill:#68c9d6;}.cls-8{fill:#f4cc79;}.cls-9{fill:#7870a7;}.cls-10{fill:#dfecc9;}.cls-10,.cls-13{stroke:#46a547;}.cls-11{fill:#e88542;}.cls-14{fill:#46a547;}.cls-15{font-size:16px;fill:#404041;}.cls-15,.cls-17{font-family:Helvetica-Bold, Helvetica;font-weight:700;}.cls-16{fill:#e6e7e8;stroke:#6d6e70;}.cls-17{font-size:14px;fill:#58595b;}.cls-18{letter-spacing:-0.04em;}.cls-19{fill:#53bc22;}.cls-20{stroke:#39d128;}</style></defs><line class="cls-1" x1="281.64" y1="737.34" x2="512.75" y2="470.75"/><line class="cls-2" x1="285.24" y1="715.46" x2="512.75" y2="448.87"/><polyline class="cls-1" points="120.74 585.58 281.64 334.75 512.75 380.54"/><line class="cls-2" x1="512.75" y1="336.78" x2="667.19" y2="358.66"/><line class="cls-1" x1="512.75" y1="380.54" x2="667.19" y2="380.54"/><line class="cls-3" x1="512.75" y1="405.1" x2="667.19" y2="405.1"/><line class="cls-1" x1="512.75" y1="470.75" x2="667.19" y2="426.98"/><line class="cls-3" x1="281.64" y1="91.8" x2="512.75" y2="314.89"/><line class="cls-2" x1="281.64" y1="135.57" x2="512.75" y2="336.78"/><line class="cls-4" x1="281.64" y1="290.98" x2="512.75" y2="358.66"/><line class="cls-3" x1="281.64" y1="460.4" x2="512.75" y2="405.1"/><line class="cls-5" x1="281.64" y1="549.28" x2="513" y2="427"/><line class="cls-2" x1="120.74" y1="442.4" x2="281.64" y2="135.57"/><line class="cls-4" x1="120.74" y1="321.1" x2="281.64" y2="113.69"/><line class="cls-4" x1="120.74" y1="342.98" x2="281.64" y2="290.98"/><line class="cls-4" x1="120.74" y1="364.87" x2="281.64" y2="482.28"/><line class="cls-4" x1="120.74" y1="386.75" x2="281.64" y2="693.58"/><line class="cls-3" x1="120.74" y1="199.8" x2="281.64" y2="91.8"/><line class="cls-3" x1="120.74" y1="221.69" x2="281.64" y2="269.1"/><line class="cls-3" x1="120.74" y1="243.57" x2="281.64" y2="460.4"/><line class="cls-3" x1="120.74" y1="265.45" x2="281.64" y2="675.46"/><circle class="cls-6" cx="281.64" cy="91.8" r="8.62"/><circle class="cls-7" cx="281.64" cy="113.69" r="8.62"/><circle class="cls-8" cx="281.64" cy="135.57" r="8.62"/><circle class="cls-9" cx="281.64" cy="157.45" r="8.62"/><circle class="cls-6" cx="512.75" cy="314.89" r="8.62"/><circle class="cls-8" cx="512.75" cy="336.78" r="8.62"/><rect class="cls-10" x="646.89" y="340.98" width="42.11" height="99.41" rx="6"/><circle class="cls-7" cx="512.75" cy="358.66" r="8.62"/><circle class="cls-9" cx="512.75" cy="380.54" r="8.62"/><circle class="cls-6" cx="512.75" cy="405.1" r="8.62"/><circle class="cls-11" cx="512.75" cy="426.98" r="8.62"/><circle class="cls-8" cx="667.19" cy="358.66" r="8.62"/><circle class="cls-9" cx="667.19" cy="380.54" r="8.62"/><circle class="cls-6" cx="667.19" cy="405.1" r="8.62"/><circle class="cls-9" cx="667.19" cy="426.98" r="8.62"/><circle class="cls-8" cx="512.75" cy="448.87" r="8.62"/><circle class="cls-9" cx="512.75" cy="470.75" r="8.62"/><circle class="cls-6" cx="281.64" cy="269.1" r="8.62"/><circle class="cls-7" cx="281.64" cy="290.98" r="8.62"/><circle class="cls-8" cx="281.64" cy="312.87" r="8.62"/><circle class="cls-9" cx="281.64" cy="334.75" r="8.62"/><circle class="cls-6" cx="281.64" cy="460.4" r="8.62"/><circle class="cls-7" cx="281.64" cy="482.28" r="8.62"/><circle class="cls-8" cx="281.64" cy="504.16" r="8.62"/><circle class="cls-9" cx="281.64" cy="526.04" r="8.62"/><circle class="cls-6" cx="281.64" cy="671.69" r="8.62"/><circle class="cls-7" cx="281.64" cy="693.58" r="8.62"/><circle class="cls-8" cx="281.64" cy="715.46" r="8.62"/><circle class="cls-9" cx="281.64" cy="737.34" r="8.62"/><line class="cls-2" x1="120.74" y1="464.28" x2="281.64" y2="312.87"/><line class="cls-2" x1="120.74" y1="486.16" x2="281.64" y2="504.16"/><line class="cls-2" x1="120.74" y1="508.04" x2="281.64" y2="715.46"/><line class="cls-12" x1="120.74" y1="563.69" x2="281.64" y2="157.45"/><line class="cls-12" x1="120.74" y1="607.46" x2="281.64" y2="526.04"/><line class="cls-12" x1="120.74" y1="629.34" x2="285.24" y2="737.34"/><line class="cls-13" x1="688.99" y1="369.48" x2="768.03" y2="369.48"/><polygon class="cls-14" points="761.4 377.66 760.04 376.2 767.26 369.49 760.04 362.77 761.4 361.31 770.2 369.49 761.4 377.66"/><text class="cls-15" transform="translate(84.33 824.64)">Input Layer</text><text class="cls-15" transform="translate(238.95 824.64)">Hidden Layer 1</text><text class="cls-15" transform="translate(462.48 824.64)">Hidden Layer 2</text><text class="cls-15" transform="translate(665.81 824.64)">Output Layer</text><rect class="cls-16" x="783.58" y="280.77" width="85.11" height="26.71" rx="6"/><rect class="cls-16" x="783.58" y="317.12" width="85.11" height="26.71" rx="6"/><rect class="cls-16" x="783.58" y="353.47" width="85.11" height="26.71" rx="6"/><rect class="cls-16" x="783.58" y="389.82" width="85.11" height="26.71" rx="6"/><rect class="cls-16" x="783.58" y="426.17" width="85.11" height="26.71" rx="6"/><rect class="cls-16" x="783.58" y="462.52" width="85.11" height="26.71" rx="6"/><text class="cls-17" transform="translate(791.2 300.88)">Horse</text><text class="cls-17" transform="translate(791.2 337.16)"><tspan class="cls-18">W</tspan><tspan x="12.7" y="0">alrus</tspan></text><text class="cls-17" transform="translate(791.2 373.44)">Elephant</text><text class="cls-17" transform="translate(791.2 409.72)">Cat</text><text class="cls-17" transform="translate(791.2 446)">Kangaroo</text><text class="cls-17" transform="translate(791.2 482.28)">Dog</text><circle class="cls-6" cx="121.16" cy="200.27" r="8.62"/><circle class="cls-6" cx="121.16" cy="222.16" r="8.62"/><circle class="cls-6" cx="121.16" cy="244.04" r="8.62"/><circle class="cls-6" cx="121.16" cy="265.92" r="8.62"/><circle class="cls-19" cx="281.16" cy="209.27" r="8.62"/><circle class="cls-19" cx="281.16" cy="382.27" r="8.62"/><circle class="cls-19" cx="281.16" cy="571.27" r="8.62"/><circle class="cls-19" cx="281.16" cy="786.27" r="8.62"/><circle class="cls-7" cx="121.16" cy="321.57" r="8.62"/><circle class="cls-7" cx="121.16" cy="343.45" r="8.62"/><circle class="cls-7" cx="121.16" cy="365.33" r="8.62"/><circle class="cls-7" cx="121.16" cy="387.22" r="8.62"/><circle class="cls-8" cx="121.16" cy="442.87" r="8.62"/><circle class="cls-8" cx="121.16" cy="464.75" r="8.62"/><circle class="cls-8" cx="121.16" cy="486.63" r="8.62"/><circle class="cls-8" cx="121.16" cy="508.51" r="8.62"/><circle class="cls-9" cx="121.16" cy="564.16" r="8.62"/><circle class="cls-9" cx="121.16" cy="586.05" r="8.62"/><circle class="cls-9" cx="121.16" cy="607.93" r="8.62"/><circle class="cls-9" cx="121.16" cy="629.81" r="8.62"/><circle class="cls-11" cx="121.16" cy="696.16" r="8.62"/><circle class="cls-11" cx="281.16" cy="182.16" r="8.62"/><circle class="cls-11" cx="281.16" cy="359.16" r="8.62"/><circle class="cls-11" cx="281.16" cy="549.16" r="8.62"/><circle class="cls-11" cx="281.16" cy="762.16" r="8.62"/><circle class="cls-11" cx="121.16" cy="718.05" r="8.62"/><circle class="cls-11" cx="121.16" cy="739.93" r="8.62"/><circle class="cls-11" cx="121.16" cy="761.81" r="8.62"/><line class="cls-5" x1="121.16" y1="696.16" x2="281.16" y2="182.16"/><line class="cls-5" x1="121.16" y1="718.05" x2="274.93" y2="365.1"/><line class="cls-5" x1="121.16" y1="739.93" x2="281.16" y2="549.16"/><line class="cls-5" x1="121.16" y1="761.81" x2="281.16" y2="762.16"/><line class="cls-20" x1="121.16" y1="68.27" x2="281.16" y2="209.27"/><line class="cls-20" x1="121.16" y1="90.16" x2="281.16" y2="382.27"/><line class="cls-20" x1="121.16" y1="112.04" x2="281.16" y2="571.27"/><line class="cls-20" x1="121.16" y1="133.92" x2="281.16" y2="786.27"/><circle class="cls-19" cx="121.16" cy="68.27" r="8.62"/><circle class="cls-19" cx="121.16" cy="90.16" r="8.62"/><circle class="cls-19" cx="121.16" cy="112.04" r="8.62"/><circle class="cls-19" cx="121.16" cy="133.92" r="8.62"/></svg>