<svg id="Layer_1" data-name="Layer 1" xmlns="http://www.w3.org/2000/svg" viewBox="0 0 1366 768"><defs><style>.cls-1{font-size:16px;fill:#404041;}.cls-1,.cls-15{font-family:Helvetica-Bold, Helvetica;font-weight:700;}.cls-12,.cls-17,.cls-2{fill:none;}.cls-2{stroke:#7870a7;}.cls-10,.cls-11,.cls-12,.cls-14,.cls-17,.cls-2,.cls-3,.cls-4,.cls-5,.cls-6,.cls-7,.cls-8,.cls-9{stroke-miterlimit:10;}.cls-11,.cls-12,.cls-14,.cls-17,.cls-2,.cls-3,.cls-4,.cls-5{stroke-width:2px;}.cls-11,.cls-3,.cls-4{fill:#fff;}.cls-17,.cls-3{stroke:#68c9d6;}.cls-4{stroke:#cf6a86;}.cls-5{fill:#dfecc9;}.cls-12,.cls-5{stroke:#46a547;}.cls-6{fill:#1cbde8;}.cls-10,.cls-6,.cls-7,.cls-8,.cls-9{stroke:#fff;}.cls-7{fill:#7870a7;}.cls-8{fill:#cf6a86;}.cls-9{fill:#68c9d6;}.cls-10{fill:#f4cc79;}.cls-11{stroke:#f4cc79;}.cls-13{fill:#46a547;}.cls-14{fill:#e6e7e8;stroke:#6d6e70;}.cls-15{font-size:14px;fill:#58595b;}.cls-16{letter-spacing:-0.04em;}</style></defs><text class="cls-1" transform="translate(84.33 664.64)">Input Layer</text><text class="cls-1" transform="translate(238.95 664.64)">Hidden Layer 1</text><text class="cls-1" transform="translate(410.81 664.64)">Output Layer</text><line class="cls-2" x1="110.54" y1="533.5" x2="271.44" y2="254.68"/><line class="cls-3" x1="110.54" y1="290.91" x2="271.44" y2="210.91"/><line class="cls-3" x1="110.54" y1="312.79" x2="271.44" y2="362.21"/><line class="cls-4" x1="110.54" y1="169.61" x2="271.44" y2="189.03"/><line class="cls-4" x1="110.54" y1="191.5" x2="271.44" y2="340.32"/><rect class="cls-5" x="426.69" y="246.91" width="42.11" height="99.41" rx="6"/><circle class="cls-6" cx="446.99" cy="264.59" r="8.62"/><circle class="cls-7" cx="446.99" cy="286.47" r="8.62"/><circle class="cls-8" cx="446.99" cy="311.03" r="8.62"/><circle class="cls-7" cx="446.99" cy="332.91" r="8.62"/><circle class="cls-8" cx="271.44" cy="189.03" r="8.62"/><circle class="cls-9" cx="271.44" cy="210.91" r="8.62"/><circle class="cls-10" cx="271.44" cy="232.79" r="8.62"/><circle class="cls-7" cx="271.44" cy="254.68" r="8.62"/><circle class="cls-8" cx="271.44" cy="340.32" r="8.62"/><circle class="cls-9" cx="271.44" cy="362.21" r="8.62"/><circle class="cls-10" cx="271.44" cy="384.09" r="8.62"/><circle class="cls-7" cx="271.44" cy="405.97" r="8.62"/><line class="cls-11" x1="110.54" y1="412.21" x2="271.44" y2="232.79"/><line class="cls-11" x1="110.54" y1="434.09" x2="271.44" y2="384.09"/><line class="cls-2" x1="110.54" y1="555.39" x2="271.44" y2="405.97"/><line class="cls-12" x1="468.79" y1="275.41" x2="547.83" y2="275.41"/><polygon class="cls-13" points="541.2 283.59 539.83 282.13 547.06 275.41 539.83 268.7 541.2 267.23 549.99 275.41 541.2 283.59"/><rect class="cls-14" x="563.38" y="186.7" width="85.11" height="26.71" rx="6"/><rect class="cls-14" x="563.38" y="223.05" width="85.11" height="26.71" rx="6"/><rect class="cls-14" x="563.38" y="259.4" width="85.11" height="26.71" rx="6"/><rect class="cls-14" x="563.38" y="295.75" width="85.11" height="26.71" rx="6"/><rect class="cls-14" x="563.38" y="332.1" width="85.11" height="26.71" rx="6"/><rect class="cls-14" x="563.38" y="368.45" width="85.11" height="26.71" rx="6"/><text class="cls-15" transform="translate(570.99 206.8)">Horse</text><text class="cls-15" transform="translate(570.99 243.08)"><tspan class="cls-16">W</tspan><tspan x="12.7" y="0">alrus</tspan></text><text class="cls-15" transform="translate(570.99 279.36)">Elephant</text><text class="cls-15" transform="translate(570.99 315.65)">Cat</text><text class="cls-15" transform="translate(570.99 351.93)">Kangaroo</text><text class="cls-15" transform="translate(570.99 388.21)">Dog</text><circle class="cls-8" cx="110.96" cy="148.2" r="8.62"/><circle class="cls-8" cx="110.96" cy="170.08" r="8.62"/><circle class="cls-8" cx="110.96" cy="191.97" r="8.62"/><circle class="cls-8" cx="110.96" cy="213.85" r="8.62"/><circle class="cls-9" cx="110.96" cy="269.5" r="8.62"/><circle class="cls-9" cx="110.96" cy="291.38" r="8.62"/><circle class="cls-9" cx="110.96" cy="313.26" r="8.62"/><circle class="cls-9" cx="110.96" cy="335.15" r="8.62"/><circle class="cls-10" cx="110.96" cy="390.79" r="8.62"/><circle class="cls-10" cx="110.96" cy="412.68" r="8.62"/><circle class="cls-10" cx="110.96" cy="434.56" r="8.62"/><circle class="cls-10" cx="110.96" cy="456.44" r="8.62"/><circle class="cls-7" cx="110.96" cy="512.09" r="8.62"/><circle class="cls-7" cx="110.96" cy="533.97" r="8.62"/><circle class="cls-7" cx="110.96" cy="555.86" r="8.62"/><circle class="cls-7" cx="110.96" cy="577.74" r="8.62"/><line class="cls-17" x1="446.99" y1="264.59" x2="271.44" y2="210.91"/><line class="cls-2" x1="446.99" y1="286.47" x2="271.44" y2="254.68"/><line class="cls-4" x1="446.99" y1="311.03" x2="271.44" y2="340.32"/><line class="cls-2" x1="446.99" y1="332.91" x2="273.06" y2="405.97"/></svg>